<mxfile host="app.diagrams.net" modified="2022-05-30T04:53:22.144Z" agent="5.0 (Windows)" etag="NaGX2gDcreY8g82NUKit" version="18.1.3" type="github">
  <diagram id="y3nyafF1e3w-YYjCvUNy" name="Page-1">
    <mxGraphModel dx="541" dy="964" grid="1" gridSize="10" guides="1" tooltips="1" connect="1" arrows="1" fold="1" page="1" pageScale="1" pageWidth="827" pageHeight="1169" math="0" shadow="0">
      <root>
        <mxCell id="0" />
        <mxCell id="1" parent="0" />
        <mxCell id="sXaz8BXVk84s5LIh5xC4-4" value="ЦП" style="swimlane;fontStyle=0;childLayout=stackLayout;horizontal=1;startSize=30;horizontalStack=0;resizeParent=1;resizeParentMax=0;resizeLast=0;collapsible=1;marginBottom=0;" vertex="1" parent="1">
          <mxGeometry x="130" y="240" width="180" height="150" as="geometry" />
        </mxCell>
        <mxCell id="sXaz8BXVk84s5LIh5xC4-13" value="Приложения" style="rounded=0;whiteSpace=wrap;html=1;" vertex="1" parent="sXaz8BXVk84s5LIh5xC4-4">
          <mxGeometry y="30" width="180" height="30" as="geometry" />
        </mxCell>
        <mxCell id="sXaz8BXVk84s5LIh5xC4-5" value="Язык программирования" style="text;strokeColor=none;fillColor=none;align=left;verticalAlign=middle;spacingLeft=4;spacingRight=4;overflow=hidden;points=[[0,0.5],[1,0.5]];portConstraint=eastwest;rotatable=0;" vertex="1" parent="sXaz8BXVk84s5LIh5xC4-4">
          <mxGeometry y="60" width="180" height="30" as="geometry" />
        </mxCell>
        <mxCell id="sXaz8BXVk84s5LIh5xC4-6" value="Среда выполнения ЯП" style="text;strokeColor=none;fillColor=none;align=left;verticalAlign=middle;spacingLeft=4;spacingRight=4;overflow=hidden;points=[[0,0.5],[1,0.5]];portConstraint=eastwest;rotatable=0;" vertex="1" parent="sXaz8BXVk84s5LIh5xC4-4">
          <mxGeometry y="90" width="180" height="30" as="geometry" />
        </mxCell>
        <mxCell id="sXaz8BXVk84s5LIh5xC4-7" value="Драйвера" style="text;strokeColor=none;fillColor=none;align=left;verticalAlign=middle;spacingLeft=4;spacingRight=4;overflow=hidden;points=[[0,0.5],[1,0.5]];portConstraint=eastwest;rotatable=0;" vertex="1" parent="sXaz8BXVk84s5LIh5xC4-4">
          <mxGeometry y="120" width="180" height="30" as="geometry" />
        </mxCell>
        <mxCell id="sXaz8BXVk84s5LIh5xC4-8" value="ПЛИС" style="swimlane;fontStyle=0;childLayout=stackLayout;horizontal=1;startSize=30;horizontalStack=0;resizeParent=1;resizeParentMax=0;resizeLast=0;collapsible=1;marginBottom=0;" vertex="1" parent="1">
          <mxGeometry x="350" y="240" width="180" height="150" as="geometry" />
        </mxCell>
        <mxCell id="sXaz8BXVk84s5LIh5xC4-14" value="Ядра функций" style="rounded=0;whiteSpace=wrap;html=1;" vertex="1" parent="sXaz8BXVk84s5LIh5xC4-8">
          <mxGeometry y="30" width="180" height="30" as="geometry" />
        </mxCell>
        <mxCell id="sXaz8BXVk84s5LIh5xC4-9" value="Протокол чтения\записи" style="text;strokeColor=none;fillColor=none;align=left;verticalAlign=middle;spacingLeft=4;spacingRight=4;overflow=hidden;points=[[0,0.5],[1,0.5]];portConstraint=eastwest;rotatable=0;" vertex="1" parent="sXaz8BXVk84s5LIh5xC4-8">
          <mxGeometry y="60" width="180" height="30" as="geometry" />
        </mxCell>
        <mxCell id="sXaz8BXVk84s5LIh5xC4-10" value="Память устройства" style="text;strokeColor=none;fillColor=none;align=left;verticalAlign=middle;spacingLeft=4;spacingRight=4;overflow=hidden;points=[[0,0.5],[1,0.5]];portConstraint=eastwest;rotatable=0;" vertex="1" parent="sXaz8BXVk84s5LIh5xC4-8">
          <mxGeometry y="90" width="180" height="30" as="geometry" />
        </mxCell>
        <mxCell id="sXaz8BXVk84s5LIh5xC4-11" value="Прямой доступ к памяти" style="text;strokeColor=none;fillColor=none;align=left;verticalAlign=middle;spacingLeft=4;spacingRight=4;overflow=hidden;points=[[0,0.5],[1,0.5]];portConstraint=eastwest;rotatable=0;" vertex="1" parent="sXaz8BXVk84s5LIh5xC4-8">
          <mxGeometry y="120" width="180" height="30" as="geometry" />
        </mxCell>
        <mxCell id="sXaz8BXVk84s5LIh5xC4-15" value="" style="endArrow=none;dashed=1;html=1;dashPattern=1 3;strokeWidth=2;rounded=0;shadow=0;sketch=0;fontSize=33;" edge="1" parent="1">
          <mxGeometry width="50" height="50" relative="1" as="geometry">
            <mxPoint x="70" y="300" as="sourcePoint" />
            <mxPoint x="680" y="300" as="targetPoint" />
          </mxGeometry>
        </mxCell>
        <mxCell id="sXaz8BXVk84s5LIh5xC4-18" value="" style="endArrow=classic;startArrow=classic;html=1;rounded=0;shadow=0;sketch=0;fontSize=7;strokeWidth=3;entryX=0.5;entryY=1;entryDx=0;entryDy=0;exitX=0.5;exitY=1;exitDx=0;exitDy=0;" edge="1" parent="1" source="sXaz8BXVk84s5LIh5xC4-8" target="sXaz8BXVk84s5LIh5xC4-4">
          <mxGeometry width="50" height="50" relative="1" as="geometry">
            <mxPoint x="440" y="480" as="sourcePoint" />
            <mxPoint x="290" y="470" as="targetPoint" />
            <Array as="points">
              <mxPoint x="440" y="440" />
              <mxPoint x="220" y="440" />
            </Array>
          </mxGeometry>
        </mxCell>
        <mxCell id="sXaz8BXVk84s5LIh5xC4-20" value="&lt;font style=&quot;font-size: 13px;&quot;&gt;Шина данных (PCIe)&lt;br&gt;&lt;/font&gt;" style="text;html=1;strokeColor=none;fillColor=none;align=center;verticalAlign=middle;whiteSpace=wrap;rounded=0;fontSize=7;" vertex="1" parent="1">
          <mxGeometry x="260" y="410" width="130" height="30" as="geometry" />
        </mxCell>
        <mxCell id="sXaz8BXVk84s5LIh5xC4-21" value="Пользовательский интерфейс" style="text;html=1;strokeColor=none;fillColor=none;align=center;verticalAlign=middle;whiteSpace=wrap;rounded=0;fontSize=13;" vertex="1" parent="1">
          <mxGeometry x="590" y="250" width="60" height="30" as="geometry" />
        </mxCell>
        <mxCell id="sXaz8BXVk84s5LIh5xC4-22" value="Аппрататный интерфейс&lt;br&gt;&lt;div&gt;&lt;br&gt;&lt;/div&gt;" style="text;html=1;strokeColor=none;fillColor=none;align=center;verticalAlign=middle;whiteSpace=wrap;rounded=0;fontSize=13;" vertex="1" parent="1">
          <mxGeometry x="590" y="350" width="60" height="30" as="geometry" />
        </mxCell>
      </root>
    </mxGraphModel>
  </diagram>
</mxfile>
